<mxfile host="app.diagrams.net" modified="2021-10-07T12:21:18.636Z" agent="5.0 (Windows NT 10.0; Win64; x64) AppleWebKit/537.36 (KHTML, like Gecko) Chrome/94.0.4606.71 Safari/537.36 Edg/94.0.992.38" etag="L79fgBUmsEaEZ_upYAFQ" version="15.4.3" type="github">
  <diagram id="rLk-gtFSgtmYK-0GjK33" name="Page-1">
    <mxGraphModel dx="1038" dy="579" grid="1" gridSize="10" guides="1" tooltips="1" connect="1" arrows="1" fold="1" page="1" pageScale="1" pageWidth="850" pageHeight="1100" math="0" shadow="0">
      <root>
        <mxCell id="0" />
        <mxCell id="1" parent="0" />
        <mxCell id="7riqEfZUTYiXbHlIuG7F-3" style="edgeStyle=orthogonalEdgeStyle;rounded=0;orthogonalLoop=1;jettySize=auto;html=1;entryX=0.5;entryY=0;entryDx=0;entryDy=0;" edge="1" parent="1" source="7riqEfZUTYiXbHlIuG7F-1" target="7riqEfZUTYiXbHlIuG7F-2">
          <mxGeometry relative="1" as="geometry" />
        </mxCell>
        <mxCell id="7riqEfZUTYiXbHlIuG7F-1" value="Start Program" style="rounded=0;whiteSpace=wrap;html=1;" vertex="1" parent="1">
          <mxGeometry x="50" width="120" height="60" as="geometry" />
        </mxCell>
        <mxCell id="7riqEfZUTYiXbHlIuG7F-5" style="edgeStyle=orthogonalEdgeStyle;rounded=0;orthogonalLoop=1;jettySize=auto;html=1;entryX=0.5;entryY=0;entryDx=0;entryDy=0;" edge="1" parent="1" source="7riqEfZUTYiXbHlIuG7F-2" target="7riqEfZUTYiXbHlIuG7F-4">
          <mxGeometry relative="1" as="geometry" />
        </mxCell>
        <mxCell id="7riqEfZUTYiXbHlIuG7F-2" value="Enter a number or operator(+,-,/,*,c,q):" style="shape=parallelogram;perimeter=parallelogramPerimeter;whiteSpace=wrap;html=1;fixedSize=1;" vertex="1" parent="1">
          <mxGeometry x="45" y="100" width="130" height="70" as="geometry" />
        </mxCell>
        <mxCell id="7riqEfZUTYiXbHlIuG7F-10" style="edgeStyle=orthogonalEdgeStyle;rounded=0;orthogonalLoop=1;jettySize=auto;html=1;entryX=0.5;entryY=0;entryDx=0;entryDy=0;" edge="1" parent="1" source="7riqEfZUTYiXbHlIuG7F-4" target="7riqEfZUTYiXbHlIuG7F-6">
          <mxGeometry relative="1" as="geometry" />
        </mxCell>
        <mxCell id="7riqEfZUTYiXbHlIuG7F-4" value="User inputs a number, +,-,/,*,c, or q" style="shape=parallelogram;perimeter=parallelogramPerimeter;whiteSpace=wrap;html=1;fixedSize=1;" vertex="1" parent="1">
          <mxGeometry x="50" y="230" width="120" height="60" as="geometry" />
        </mxCell>
        <mxCell id="7riqEfZUTYiXbHlIuG7F-8" value="" style="edgeStyle=orthogonalEdgeStyle;rounded=0;orthogonalLoop=1;jettySize=auto;html=1;" edge="1" parent="1" source="7riqEfZUTYiXbHlIuG7F-6" target="7riqEfZUTYiXbHlIuG7F-7">
          <mxGeometry relative="1" as="geometry" />
        </mxCell>
        <mxCell id="7riqEfZUTYiXbHlIuG7F-9" value="No" style="edgeLabel;html=1;align=center;verticalAlign=middle;resizable=0;points=[];" vertex="1" connectable="0" parent="7riqEfZUTYiXbHlIuG7F-8">
          <mxGeometry x="-0.304" y="-2" relative="1" as="geometry">
            <mxPoint as="offset" />
          </mxGeometry>
        </mxCell>
        <mxCell id="7riqEfZUTYiXbHlIuG7F-36" style="edgeStyle=orthogonalEdgeStyle;rounded=0;orthogonalLoop=1;jettySize=auto;html=1;" edge="1" parent="1" source="7riqEfZUTYiXbHlIuG7F-6">
          <mxGeometry relative="1" as="geometry">
            <mxPoint x="110" y="470" as="targetPoint" />
          </mxGeometry>
        </mxCell>
        <mxCell id="7riqEfZUTYiXbHlIuG7F-37" value="Yes" style="edgeLabel;html=1;align=center;verticalAlign=middle;resizable=0;points=[];" vertex="1" connectable="0" parent="7riqEfZUTYiXbHlIuG7F-36">
          <mxGeometry x="0.3964" y="2" relative="1" as="geometry">
            <mxPoint as="offset" />
          </mxGeometry>
        </mxCell>
        <mxCell id="7riqEfZUTYiXbHlIuG7F-6" value="Was a number entered?" style="rhombus;whiteSpace=wrap;html=1;" vertex="1" parent="1">
          <mxGeometry x="70" y="340" width="80" height="80" as="geometry" />
        </mxCell>
        <mxCell id="7riqEfZUTYiXbHlIuG7F-13" style="edgeStyle=orthogonalEdgeStyle;rounded=0;orthogonalLoop=1;jettySize=auto;html=1;" edge="1" parent="1" source="7riqEfZUTYiXbHlIuG7F-7">
          <mxGeometry relative="1" as="geometry">
            <mxPoint x="370" y="380" as="targetPoint" />
          </mxGeometry>
        </mxCell>
        <mxCell id="7riqEfZUTYiXbHlIuG7F-14" value="No" style="edgeLabel;html=1;align=center;verticalAlign=middle;resizable=0;points=[];" vertex="1" connectable="0" parent="7riqEfZUTYiXbHlIuG7F-13">
          <mxGeometry x="0.22" y="-1" relative="1" as="geometry">
            <mxPoint as="offset" />
          </mxGeometry>
        </mxCell>
        <mxCell id="7riqEfZUTYiXbHlIuG7F-19" value="" style="edgeStyle=orthogonalEdgeStyle;rounded=0;orthogonalLoop=1;jettySize=auto;html=1;" edge="1" parent="1" source="7riqEfZUTYiXbHlIuG7F-7" target="7riqEfZUTYiXbHlIuG7F-18">
          <mxGeometry relative="1" as="geometry" />
        </mxCell>
        <mxCell id="7riqEfZUTYiXbHlIuG7F-20" value="Yes" style="edgeLabel;html=1;align=center;verticalAlign=middle;resizable=0;points=[];" vertex="1" connectable="0" parent="7riqEfZUTYiXbHlIuG7F-19">
          <mxGeometry x="-0.2933" y="2" relative="1" as="geometry">
            <mxPoint as="offset" />
          </mxGeometry>
        </mxCell>
        <mxCell id="7riqEfZUTYiXbHlIuG7F-7" value="Was +,-,/,* entered?" style="rhombus;whiteSpace=wrap;html=1;" vertex="1" parent="1">
          <mxGeometry x="210" y="340" width="80" height="80" as="geometry" />
        </mxCell>
        <mxCell id="7riqEfZUTYiXbHlIuG7F-16" style="edgeStyle=orthogonalEdgeStyle;rounded=0;orthogonalLoop=1;jettySize=auto;html=1;entryX=1;entryY=0.5;entryDx=0;entryDy=0;" edge="1" parent="1" source="7riqEfZUTYiXbHlIuG7F-15" target="7riqEfZUTYiXbHlIuG7F-2">
          <mxGeometry relative="1" as="geometry">
            <Array as="points">
              <mxPoint x="420" y="140" />
              <mxPoint x="165" y="140" />
            </Array>
          </mxGeometry>
        </mxCell>
        <mxCell id="7riqEfZUTYiXbHlIuG7F-15" value="Invalid Input" style="shape=parallelogram;perimeter=parallelogramPerimeter;whiteSpace=wrap;html=1;fixedSize=1;" vertex="1" parent="1">
          <mxGeometry x="490" y="140" width="120" height="60" as="geometry" />
        </mxCell>
        <mxCell id="7riqEfZUTYiXbHlIuG7F-42" style="edgeStyle=orthogonalEdgeStyle;rounded=0;orthogonalLoop=1;jettySize=auto;html=1;entryX=0;entryY=0.5;entryDx=0;entryDy=0;" edge="1" parent="1" source="7riqEfZUTYiXbHlIuG7F-17" target="7riqEfZUTYiXbHlIuG7F-4">
          <mxGeometry relative="1" as="geometry">
            <Array as="points">
              <mxPoint x="40" y="500" />
              <mxPoint x="40" y="260" />
            </Array>
          </mxGeometry>
        </mxCell>
        <mxCell id="7riqEfZUTYiXbHlIuG7F-17" value="Print/store new calculated value" style="shape=parallelogram;perimeter=parallelogramPerimeter;whiteSpace=wrap;html=1;fixedSize=1;" vertex="1" parent="1">
          <mxGeometry x="50" y="470" width="120" height="60" as="geometry" />
        </mxCell>
        <mxCell id="7riqEfZUTYiXbHlIuG7F-41" style="edgeStyle=orthogonalEdgeStyle;rounded=0;orthogonalLoop=1;jettySize=auto;html=1;entryX=0;entryY=0.25;entryDx=0;entryDy=0;" edge="1" parent="1" source="7riqEfZUTYiXbHlIuG7F-18" target="7riqEfZUTYiXbHlIuG7F-4">
          <mxGeometry relative="1" as="geometry">
            <Array as="points">
              <mxPoint x="250" y="590" />
              <mxPoint x="20" y="590" />
              <mxPoint x="20" y="249" />
            </Array>
          </mxGeometry>
        </mxCell>
        <mxCell id="7riqEfZUTYiXbHlIuG7F-18" value="Store operator" style="whiteSpace=wrap;html=1;" vertex="1" parent="1">
          <mxGeometry x="190" y="470" width="120" height="60" as="geometry" />
        </mxCell>
        <mxCell id="7riqEfZUTYiXbHlIuG7F-23" value="" style="edgeStyle=orthogonalEdgeStyle;rounded=0;orthogonalLoop=1;jettySize=auto;html=1;" edge="1" parent="1" source="7riqEfZUTYiXbHlIuG7F-21" target="7riqEfZUTYiXbHlIuG7F-22">
          <mxGeometry relative="1" as="geometry" />
        </mxCell>
        <mxCell id="7riqEfZUTYiXbHlIuG7F-30" value="No" style="edgeLabel;html=1;align=center;verticalAlign=middle;resizable=0;points=[];" vertex="1" connectable="0" parent="7riqEfZUTYiXbHlIuG7F-23">
          <mxGeometry x="0.245" y="1" relative="1" as="geometry">
            <mxPoint as="offset" />
          </mxGeometry>
        </mxCell>
        <mxCell id="7riqEfZUTYiXbHlIuG7F-32" value="" style="edgeStyle=orthogonalEdgeStyle;rounded=0;orthogonalLoop=1;jettySize=auto;html=1;" edge="1" parent="1" source="7riqEfZUTYiXbHlIuG7F-21" target="7riqEfZUTYiXbHlIuG7F-31">
          <mxGeometry relative="1" as="geometry" />
        </mxCell>
        <mxCell id="7riqEfZUTYiXbHlIuG7F-33" value="Yes" style="edgeLabel;html=1;align=center;verticalAlign=middle;resizable=0;points=[];" vertex="1" connectable="0" parent="7riqEfZUTYiXbHlIuG7F-32">
          <mxGeometry x="0.2578" y="-2" relative="1" as="geometry">
            <mxPoint as="offset" />
          </mxGeometry>
        </mxCell>
        <mxCell id="7riqEfZUTYiXbHlIuG7F-21" value="Was c entered?" style="rhombus;whiteSpace=wrap;html=1;" vertex="1" parent="1">
          <mxGeometry x="370" y="340" width="80" height="80" as="geometry" />
        </mxCell>
        <mxCell id="7riqEfZUTYiXbHlIuG7F-24" style="edgeStyle=orthogonalEdgeStyle;rounded=0;orthogonalLoop=1;jettySize=auto;html=1;entryX=0.5;entryY=1;entryDx=0;entryDy=0;" edge="1" parent="1" source="7riqEfZUTYiXbHlIuG7F-22" target="7riqEfZUTYiXbHlIuG7F-15">
          <mxGeometry relative="1" as="geometry" />
        </mxCell>
        <mxCell id="7riqEfZUTYiXbHlIuG7F-25" value="No" style="edgeLabel;html=1;align=center;verticalAlign=middle;resizable=0;points=[];" vertex="1" connectable="0" parent="7riqEfZUTYiXbHlIuG7F-24">
          <mxGeometry x="-0.3125" y="3" relative="1" as="geometry">
            <mxPoint as="offset" />
          </mxGeometry>
        </mxCell>
        <mxCell id="7riqEfZUTYiXbHlIuG7F-27" value="" style="edgeStyle=orthogonalEdgeStyle;rounded=0;orthogonalLoop=1;jettySize=auto;html=1;" edge="1" parent="1" source="7riqEfZUTYiXbHlIuG7F-22" target="7riqEfZUTYiXbHlIuG7F-26">
          <mxGeometry relative="1" as="geometry" />
        </mxCell>
        <mxCell id="7riqEfZUTYiXbHlIuG7F-22" value="Was q entered?" style="rhombus;whiteSpace=wrap;html=1;" vertex="1" parent="1">
          <mxGeometry x="530" y="340" width="80" height="80" as="geometry" />
        </mxCell>
        <mxCell id="7riqEfZUTYiXbHlIuG7F-28" value="" style="edgeStyle=orthogonalEdgeStyle;rounded=0;orthogonalLoop=1;jettySize=auto;html=1;" edge="1" parent="1" source="7riqEfZUTYiXbHlIuG7F-26" target="7riqEfZUTYiXbHlIuG7F-22">
          <mxGeometry relative="1" as="geometry" />
        </mxCell>
        <mxCell id="7riqEfZUTYiXbHlIuG7F-29" value="Yes" style="edgeLabel;html=1;align=center;verticalAlign=middle;resizable=0;points=[];" vertex="1" connectable="0" parent="7riqEfZUTYiXbHlIuG7F-28">
          <mxGeometry x="-0.2667" relative="1" as="geometry">
            <mxPoint as="offset" />
          </mxGeometry>
        </mxCell>
        <mxCell id="7riqEfZUTYiXbHlIuG7F-26" value="End Program" style="whiteSpace=wrap;html=1;" vertex="1" parent="1">
          <mxGeometry x="510" y="470" width="120" height="60" as="geometry" />
        </mxCell>
        <mxCell id="7riqEfZUTYiXbHlIuG7F-31" value="Set all numbers to zero and remove all the operators" style="whiteSpace=wrap;html=1;" vertex="1" parent="1">
          <mxGeometry x="350" y="470" width="120" height="60" as="geometry" />
        </mxCell>
      </root>
    </mxGraphModel>
  </diagram>
</mxfile>
